<svg xmlns="http://www.w3.org/2000/svg" viewBox="0 0 24 24" class="css-ha8kg" width="24px"  height="24px" ><path fill-rule="evenodd" clip-rule="evenodd" d="M19.96 11.98C19.96 7.57336 16.3867 4 11.98 4C7.57328 4 4 7.57328 4 11.98C4 16.3867 7.57328 19.96 11.98 19.96C16.3867 19.96 19.96 16.3867 19.96 11.98ZM5.68 11.98C5.68 8.50022 8.50022 5.68 11.98 5.68C15.4598 5.68 18.28 8.50022 18.28 11.98C18.28 15.4598 15.4598 18.28 11.98 18.28C8.50022 18.28 5.68 15.4598 5.68 11.98ZM13.1678 11.98L15.0938 13.9061C15.422 14.2342 15.422 14.7658 15.0938 15.0939C14.7657 15.422 14.2341 15.422 13.906 15.0939L11.98 13.1678L10.0539 15.0939C9.72576 15.422 9.19418 15.422 8.86608 15.0939C8.53797 14.7658 8.53795 14.2342 8.86608 13.9061L10.7922 11.98L8.86608 10.0539C8.53795 9.7258 8.53795 9.19422 8.86608 8.86612C9.1942 8.53802 9.72578 8.53799 10.0539 8.86612L11.98 10.7922L13.906 8.86612C14.2342 8.53799 14.7657 8.53799 15.0938 8.86612C15.4219 9.19424 15.422 9.72582 15.0938 10.0539L13.1678 11.98Z"></path></svg>
