<svg xmlns="http://www.w3.org/2000/svg" viewBox="0 0 24 24" style="width: 24px; height: 24px;" width="24"  height="24" ><g fill="#3dc795" id="checkboxCircleChecked706e94ad428818d757e905e55b39db37">
	<path fill-rule="evenodd" clip-rule="evenodd" d="M12 24C18.6274 24 24 18.6274 24 12C24 5.37258 18.6274 0 12 0C5.37258 0 0 5.37258 0 12C0 18.6274 5.37258 24 12 24ZM5.30275 11.8113C5.69297 11.4364 6.31061 11.4399 6.69653 11.8192L9.69271 14.7641L16.9044 7.48899C17.299 7.09087 17.9438 7.09487 18.3334 7.49786L18.7106 7.88791C19.0899 8.28023 19.0847 8.90425 18.6988 9.29014L11.0995 16.8895C10.3186 17.6704 9.05249 17.6706 8.27138 16.8898L4.94744 13.5675C4.55121 13.1714 4.55758 12.5272 4.96157 12.1391L5.30275 11.8113Z"></path>
</g></svg>
