<?xml version="1.0" encoding="utf-8"?>
<!-- Generator: Adobe Illustrator 23.0.1, SVG Export Plug-In . SVG Version: 6.00 Build 0)  -->
<svg version="1.1" xmlns="http://www.w3.org/2000/svg" xmlns:xlink="http://www.w3.org/1999/xlink" x="0px" y="0px"
	 viewBox="0 0 96.3 95.5" style="enable-background:new 0 0 96.3 95.5;" xml:space="preserve">
<g id="Layer_2">
</g>
<g id="Layer_1">
	<g>
		<path d="M5271.2,2398.1v-2c0-2.8-5-4-9.7-4s-9.7,1.3-9.7,4v2c0,1.8,0.7,3.6,2,4.9l5,4.9c0.3,0.3,0.4,0.6,0.4,1v6.4
			c0,0.4,0.2,0.7,0.6,0.8l2.9,0.9c0.5,0.1,1-0.2,1-0.8v-7.2c0-0.4,0.2-0.7,0.4-1l5.1-5C5270.5,2401.7,5271.2,2399.9,5271.2,2398.1z
			 M5261.5,2398c-4.8,0-7.4-1.3-7.5-1.8l0,0c0.1-0.5,2.7-1.8,7.5-1.8s7.3,1.3,7.5,1.8C5268.8,2396.7,5266.3,2398,5261.5,2398z"/>
		<path d="M5266.5,2408.3c-0.6,0-1,0.4-1,1s0.4,1,1,1h4.3c0.6,0,1-0.4,1-1s-0.4-1-1-1H5266.5z"/>
		<path d="M5270.8,2411.7h-4.3c-0.6,0-1,0.4-1,1s0.4,1,1,1h4.3c0.6,0,1-0.4,1-1C5271.8,2412.1,5271.4,2411.7,5270.8,2411.7z"/>
		<path d="M5270.8,2415h-4.3c-0.6,0-1,0.4-1,1s0.4,1,1,1h4.3c0.6,0,1-0.4,1-1C5271.8,2415.5,5271.4,2415,5270.8,2415z"/>
	</g>
	<g>
		<path d="M48.1,0.5C21.9,0.5,0.6,21.8,0.6,48s21.3,47.5,47.5,47.5S95.6,74.2,95.6,48S74.3,0.5,48.1,0.5z M48.1,87
			c-21.5,0-39-17.5-39-39s17.5-39,39-39s39,17.5,39,39S69.6,87,48.1,87z"/>
		<path d="M52.3,45.8V25.1c0-2.3-1.9-4.2-4.2-4.2s-4.2,1.9-4.2,4.2V48c0,1.4,0.7,2.7,1.8,3.5L59.2,61c0.7,0.5,1.6,0.8,2.4,0.8
			c1.3,0,2.6-0.6,3.5-1.8c1.3-1.9,0.9-4.6-1-5.9L52.3,45.8z"/>
	</g>
</g>
</svg>
