<svg xmlns="http://www.w3.org/2000/svg" version="1.1" x="0" y="0" viewBox="0 0 113.4 113.4" xml:space="preserve">
<path class="st0" d="M56.5 62.3l8.9 10.6 0.1 0.1 0.1 0.1c2.4 2.4 3.7 5.7 3.7 9.1 0 7.1-5.8 12.9-12.9 12.9s-12.9-5.8-12.9-12.9c0-3.4 1.3-6.7 3.7-9.1l0.1-0.1 0.1-0.1L56.5 62.3M56.5 55.8c-1.1 0-2.3 0.4-3.1 1.4L43.2 69.4c-3.3 3.4-5.4 7.9-5.4 13.1 0 10.2 8.4 18.6 18.6 18.6S75 92.7 75 82.4c0-5.1-2-9.6-5.4-13.1L59.4 57.2C58.8 56.2 57.7 55.8 56.5 55.8L56.5 55.8zM52.3 11.9c8.8 8.2 12.9 18.9 13.1 33.6 0 4 2.8 7.4 6.7 7.9 0.4 0.1 0.9 0.1 1.3 0.1 4.4 0 7.8-3.4 7.9-7.8 0-0.4 0-0.7 0-1.1 0-0.6 0-1.8 0.1-3.3 0-1.3 1.6-1.8 2.4-1 7.5 8.2 11.9 18.9 11.9 29.7 0 9.2-4.4 18.7-11.9 26 -7.7 7.4-17.6 11.5-27.4 11.5 -9.8 0-19.7-4.3-27.4-11.5 -7.5-7.2-11.9-16.7-11.9-26 0-14.6 8.9-24.8 16.7-33.6 8.9-10.1 13.6-18.3 14.5-25 0.1-1.1 1.4-1.6 2.3-0.9L52.3 11.9zM43.6 0c-1 0-1.8 0.4-2.4 1.3 -0.6 1 0.3 3.1 1.3 5.8 2 6.1-4.1 15.9-12.8 25.7C21.6 42 11.6 53.4 11.6 70.2c0 22.7 21.4 43.3 45 43.3s45-20.6 45-43.3c0-14.3-6.8-28.5-18.2-38l-1.4-1.1c-0.7-0.6-1.4-0.9-2.3-0.9 -1.3 0-2.6 0.7-3.1 2 -0.4 1-0.9 10.9-0.9 12.6 0 0.3 0 0.9 0 1 0 1.3-1 2.3-2.3 2.3 -0.1 0-0.3 0-0.4 0 -1.1-0.1-2-1.3-2-2.4 -0.1-17-5.3-28.9-14.9-37.9C51.7 3.7 46.7 0 43.6 0L43.6 0z"/>
</svg>
