<svg xmlns="http://www.w3.org/2000/svg" viewBox="0 0 69 95.3"><path d="M69 26.7c0-12.5-5.9-26.4-16-26.4S37 14.2 37 26.7c0 10 4.6 16.1 10.9 18.1l-3.2 41.5c-0.4 4.9 3.5 9 8.4 9s8.7-4.2 8.4-9l-3.4-41.5C64.4 42.7 69 36.6 69 26.7z"/><path d="M26.5 3.1h-0.3c-1.6 0-2.8 1.3-2.8 2.9l0.7 22c0.1 1.6-1.2 2.9-2.8 2.9 -1.5 0-2.8-1.2-2.8-2.7L18.3 5.8c0-1.5-1.3-2.7-2.8-2.7h-0.4c-1.5 0-2.8 1.2-2.8 2.7L12 28.1c0 1.5-1.3 2.7-2.8 2.7 -1.6 0-2.8-1.3-2.8-2.9l0.7-22C7.2 4.3 5.9 3 4.3 3H4C2.5 3 1.3 4.2 1.2 5.7L0.3 28.5C0 35.2 4.2 40.9 10.2 43.1L6.8 86.2c-0.4 4.9 3.5 9 8.4 9s8.7-4.2 8.4-9l-3.4-43.1c5.9-2.1 10.1-7.9 9.9-14.6L29.3 5.8C29.2 4.3 28 3.1 26.5 3.1z"/></svg>
