<svg xmlns="http://www.w3.org/2000/svg" version="1.1" x="0" y="0" viewBox="0 0 71.5 95.2" xml:space="preserve"><path d="M68.9 9.5H56.8c-1.5 0-2.6 1.1-2.6 2.6v72.4c0 1.5 1.1 2.6 2.6 2.6h12.1c1.5 0 2.6-1.1 2.6-2.6V12.1C71.5 10.7 70.4 9.5 68.9 9.5zM41.8 25.2H29.7c-1.5 0-2.6 1.1-2.6 2.6v56.9c0 1.5 1.1 2.6 2.6 2.6h12c1.5 0 2.6-1.1 2.6-2.6V27.8C44.4 26.4 43.3 25.2 41.8 25.2zM14.7 40.9H2.6C1.1 40.9 0 42 0 43.5v41.2c0 1.5 1.1 2.6 2.6 2.6h12c1.5 0 2.6-1.1 2.6-2.6V43.5C17.3 42 16.2 40.9 14.7 40.9z"/></svg>
