<svg xmlns="http://www.w3.org/2000/svg" viewBox="0 0 71.5 95.2"><path d="M13.9 25l1.3 3.1c0.5 1.3 1.8 2.1 3.2 2.1 0.4 0 0.9-0.1 1.3-0.3 1.8-0.7 2.6-2.7 1.9-4.5l-1.3-3.1c-0.7-1.7-0.4-3.6 0.8-5 2.8-3.4 3.5-8 1.8-12l-1.3-3.1c-0.8-1.6-2.8-2.5-4.6-1.7 -1.8 0.7-2.6 2.7-1.9 4.5l1.3 3.1c0.7 1.7 0.4 3.6-0.7 5C12.9 16.4 12.2 21 13.9 25z"/><path d="M31.3 25l1.3 3.1c0.5 1.3 1.8 2.1 3.2 2.1 0.4 0 0.9-0.1 1.3-0.3 1.8-0.7 2.6-2.7 1.9-4.5l-1.3-3.1c-0.7-1.7-0.4-3.6 0.7-5 2.8-3.4 3.5-8 1.8-12l-1.3-3.1c-0.7-1.8-2.7-2.6-4.5-1.9C32.6 1 31.8 3 32.5 4.8l1.3 3.1c0.7 1.7 0.4 3.6-0.7 5C30.4 16.4 29.7 21 31.3 25z"/><path d="M48.8 25l1.3 3.1c0.5 1.3 1.8 2.1 3.2 2.1 0.4 0 0.9-0.1 1.3-0.3 1.8-0.7 2.6-2.7 1.9-4.5l-1.3-3.1c-0.7-1.7-0.4-3.6 0.7-5 2.8-3.4 3.5-8 1.8-12l-1.3-3.1c-0.7-1.8-2.7-2.6-4.5-1.9S49.3 3 50 4.8l1.3 3.1c0.7 1.7 0.4 3.6-0.8 5C47.8 16.4 47.1 21 48.8 25z"/><path d="M6.9 51.4h57.8c1.7 0 3.1-1.4 3.1-3.1v-1.9c0-1.7-1.4-3.1-3.1-3.1H41.2l0.2-2.9c0.2-2.8-2-5.2-4.8-5.2h-1.5c-2.8 0-5 2.4-4.8 5.2l0.2 2.9H6.9c-1.7 0-3.1 1.4-3.1 3.1v1.9C3.8 50 5.2 51.4 6.9 51.4z"/><path d="M68.6 62.3l-4.1 0.1v-4.7c0-1.2-0.9-2.1-2.1-2.1H9.2c-1.2 0-2.1 0.9-2.1 2.1v4.7L3 62.3c-1.7 0-3 1.3-3 3v3.4c0 1.7 1.4 3 3 3l4.1-0.1v11.6c0 6.6 5.4 12 12 12h33.3c6.6 0 12-5.4 12-12V71.6l4.1 0.1c1.7 0 3-1.3 3-3v-3.4C71.6 63.6 70.2 62.3 68.6 62.3z"/></svg>
