<svg xmlns="http://www.w3.org/2000/svg" viewBox="0 0 82.2 95.8"><path d="M45.6 46v-1.3c0-2.5-2-4.5-4.5-4.5s-4.5 2-4.5 4.5V46C19.5 48.2 6.3 62.8 6.3 80.5H76C75.9 62.8 62.7 48.2 45.6 46z"/><path d="M17.9 27.1l1.4 3.3c0.6 1.4 1.9 2.3 3.4 2.3 0.5 0 0.9-0.1 1.4-0.3 1.9-0.8 2.7-2.9 2-4.8l-1.4-3.3c-0.7-1.8-0.4-3.8 0.8-5.3 2.9-3.6 3.7-8.4 1.9-12.7L26 3c-0.8-1.9-2.9-2.7-4.8-2 -1.9 0.8-2.7 2.9-2 4.8l1.4 3.3c0.7 1.8 0.4 3.8-0.8 5.3C16.9 17.9 16.2 22.8 17.9 27.1z"/><path d="M36.4 27.1l1.4 3.3c0.6 1.4 1.9 2.3 3.4 2.3 0.5 0 0.9-0.1 1.4-0.3 1.9-0.8 2.7-2.9 2-4.8l-1.4-3.3c-0.7-1.8-0.4-3.8 0.8-5.3 2.9-3.6 3.7-8.4 1.9-12.7L44.5 3c-0.8-1.9-2.9-2.7-4.8-2 -1.9 0.8-2.7 2.9-2 4.8l1.4 3.3c0.7 1.8 0.4 3.8-0.8 5.3C35.4 17.9 34.7 22.8 36.4 27.1z"/><path d="M54.9 27.1l1.4 3.3c0.6 1.4 1.9 2.3 3.4 2.3 0.5 0 0.9-0.1 1.4-0.3 1.9-0.8 2.7-2.9 2-4.8l-1.5-3.3c-0.7-1.8-0.4-3.8 0.8-5.3 2.9-3.6 3.7-8.4 1.9-12.7L62.9 3c-0.8-1.9-2.9-2.7-4.8-2 -1.9 0.8-2.7 2.9-2 4.8l1.4 3.3c0.7 1.8 0.4 3.8-0.8 5.3C53.9 17.9 53.2 22.8 54.9 27.1z"/><path d="M79 86.3H3.2c-1.8 0-3.2 1.4-3.2 3.2v3.1c0 1.8 1.4 3.2 3.2 3.2H79c1.8 0 3.2-1.4 3.2-3.2v-3.1C82.2 87.8 80.8 86.3 79 86.3z"/></svg>
