<?xml version="1.0" encoding="utf-8"?>
<!-- Generator: Adobe Illustrator 24.0.2, SVG Export Plug-In . SVG Version: 6.00 Build 0)  -->
<svg version="1.1" id="Layer_1" xmlns="http://www.w3.org/2000/svg" xmlns:xlink="http://www.w3.org/1999/xlink" x="0px" y="0px"
	 viewBox="0 0 71.5 95.2" style="enable-background:new 0 0 71.5 95.2;" xml:space="preserve">
<style type="text/css">
	.st0{fill:none;}
</style>
<g>
	<path d="M35.9,82.5c-10.2,0-20.5,0-30.7,0c-2.9,0-4.8-1.8-4.9-4.7c0-2.1,0-4.1,0-6.2c0.1-2.5,1.3-4.3,3.4-5.5c7-3.8,14-7.5,21-11.3
		c0.5-0.3,0.8,0,1.2,0.2c6,3.1,12.1,3.4,18.3,0.8c0.2-0.1,0.4-0.1,0.5-0.2c1.3-1.1,2.5-0.7,3.8,0.1c6.3,3.5,12.6,6.8,18.9,10.2
		c2.7,1.5,4.1,3.6,4,6.7c0,1.8,0,3.5,0,5.2c0,2.9-1.9,4.8-4.8,4.8C56.4,82.5,46.1,82.5,35.9,82.5z"/>
	<path d="M35.4,53.3c-5.8-0.2-10.5-3-14.1-8.1c-5.8-8.3-5.1-20.1,1.5-27.6c7.2-8.2,19-8.1,26.2,0.1c7.5,8.8,7.1,22.6-1.1,30.6
		C44.6,51.4,40.6,53.2,35.4,53.3z"/>
</g>
<line class="st0" x1="189.9" y1="32.3" x2="189.9" y2="29.7"/>
</svg>
