<?xml version="1.0" encoding="utf-8"?>
<!-- Generator: Adobe Illustrator 23.0.1, SVG Export Plug-In . SVG Version: 6.00 Build 0)  -->
<svg version="1.1" id="Layer_1" xmlns="http://www.w3.org/2000/svg" xmlns:xlink="http://www.w3.org/1999/xlink" x="0px" y="0px"
	 viewBox="0 0 113.4 113.4" style="enable-background:new 0 0 113.4 113.4;" xml:space="preserve">
<style type="text/css">
	.st0{fill:#F9F9F9;}
	.st1{fill:#A1A1A1;}
</style>
<circle class="st0" cx="56.7" cy="56.7" r="56.7"/>
<path class="st1" d="M84,47.4h-5.2l-8.4-16.8c-0.8-1.6-2.7-2.1-4.2-1.4c-1.6,0.8-2.1,2.7-1.4,4.2l7.1,14.1H41.3l7.1-14.1
	c0.8-1.6,0.1-3.4-1.4-4.2c-1.6-0.8-3.4-0.1-4.2,1.4l-8.4,16.8h-5.2c-1.9,0-3.4,1.5-3.4,3.4v2c0,1.9,1.5,3.4,3.4,3.4H30l4.5,21.8
	c0.3,1.6,1.7,2.7,3.3,2.7h37.8c1.6,0,3-1.1,3.3-2.7l4.5-21.8h0.8c1.9,0,3.4-1.5,3.4-3.4v-2C87.4,48.9,85.9,47.4,84,47.4z M47.2,72.5
	c0,1.2-1,2.1-2.1,2.1H44c-1.2,0-2.1-1-2.1-2.1V56.5c0-1.2,1-2.1,2.1-2.1h1.1c1.2,0,2.1,1,2.1,2.1V72.5z M59.3,72.5
	c0,1.2-1,2.1-2.1,2.1h-1.1c-1.2,0-2.1-1-2.1-2.1V56.5c0-1.2,1-2.1,2.1-2.1h1.1c1.2,0,2.1,1,2.1,2.1V72.5z M71.5,72.5
	c0,1.2-1,2.1-2.1,2.1h-1.1c-1.2,0-2.1-1-2.1-2.1V56.5c0-1.2,1-2.1,2.1-2.1h1.1c1.2,0,2.1,1,2.1,2.1V72.5z"/>
</svg>
